<svg width="59" height="49" viewBox="0 0 59 49" fill="none" xmlns="http://www.w3.org/2000/svg">
<path d="M0.379509 38.2387C1.95033 43.3733 4.68447 46.5858 7.61502 47.8695C11.0491 49.3682 14.7017 48.1431 18.0605 45.6931C21.1478 43.4385 24.2856 40.187 26.739 35.6322C28.7783 31.8529 30.7924 26.0601 30.301 20.3846C30.0751 17.7716 29.1811 15.7256 27.7912 15.6409C26.1844 15.5366 24.5988 17.7065 23.7942 20.5019C22.138 26.2621 23.004 33.2864 25.198 37.4828C27.4874 41.8681 30.8356 43.5362 34.0345 43.2235C37.5523 42.8781 40.9998 40.389 44.0513 36.6227C47.1027 32.8564 49.7205 27.9954 52.1746 22.8346C54.6287 17.6739 56.9429 12.4089 58.002 5.82763C58.253 4.27028 58.4108 2.68035 58.4717 1.07088C58.5162 -0.0629205 57.1245 0.503979 57.0894 1.41623C56.843 7.71078 55.0635 13.2364 53.0344 18.0518C50.9707 22.9454 48.667 27.5979 46.1702 31.6118C43.6866 35.6127 40.8974 38.9359 37.843 40.591C34.8907 42.1939 31.7003 42.2004 28.9816 39.7178C26.4242 37.3851 24.4249 32.8368 24.3135 26.9202C24.2609 24.1444 24.6673 20.9645 25.6835 18.8468C26.0761 18.0323 26.6364 17.1396 27.216 17.1852C27.7957 17.2308 28.2355 17.9867 28.5257 18.8728C29.1534 20.8081 29.0851 23.4993 28.7607 25.7147C28.3716 28.3863 27.6518 30.8168 26.7388 32.9541C24.85 37.3916 22.2359 40.4867 19.6354 42.8586C16.6155 45.6084 13.3389 47.4329 10.0827 46.892C7.38532 46.4424 4.72732 44.227 2.87706 40.389C2.40751 39.4181 1.99603 38.3429 1.64189 37.1896C1.41264 36.4467 0.0866413 37.3329 0.366347 38.2452H0.379328L0.379509 38.2387Z" fill="#EF790C"/>
</svg>
