<svg width="465" height="104" viewBox="0 0 465 104" fill="none" xmlns="http://www.w3.org/2000/svg">
<path d="M0.17 82.9824L12.07 23.4824H43.605C50.6883 23.4824 56.015 24.7291 59.585 27.2224C63.155 29.6591 64.94 33.1441 64.94 37.6774C64.94 41.3608 63.8633 44.4774 61.71 47.0274C59.6133 49.5774 56.695 51.5324 52.955 52.8924C49.2717 54.1958 45.0217 54.8474 40.205 54.8474L42.755 50.2574C48.8183 50.2574 53.5783 51.4758 57.035 53.9124C60.5483 56.2924 62.305 59.6641 62.305 64.0274C62.305 68.3908 61.03 71.9891 58.48 74.8224C55.9867 77.5991 52.6433 79.6674 48.45 81.0274C44.2567 82.3308 39.61 82.9824 34.51 82.9824H0.17ZM22.695 68.9574H35.615C37.5983 68.9574 39.2133 68.5041 40.46 67.5974C41.7633 66.6908 42.415 65.3308 42.415 63.5174C42.415 62.2141 41.905 61.2508 40.885 60.6274C39.9217 59.9474 38.7883 59.6074 37.485 59.6074H23.205L25.84 46.3474H37.4C38.93 46.3474 40.1767 46.1491 41.14 45.7524C42.16 45.2991 42.8967 44.7041 43.35 43.9674C43.8033 43.1741 44.03 42.2391 44.03 41.1624C44.03 39.9158 43.5483 39.0091 42.585 38.4424C41.6783 37.8191 40.4033 37.5074 38.76 37.5074H28.985L22.695 68.9574ZM59.4522 82.9824L97.3622 23.4824H117.082L131.192 82.9824H111.217L101.612 32.7474H109.432L80.6172 82.9824H59.4522ZM76.9622 72.6124L84.9522 58.1624H112.322L114.532 72.6124H76.9622ZM134.394 82.9824L146.294 23.4824H166.354L157.599 67.4274H184.459L181.314 82.9824H134.394ZM186.855 82.9824L198.755 23.4824H218.815L206.915 82.9824H186.855Z" fill="#EF790C"/>
<path d="M277.66 23.4824V21.9824H276.43L276.189 23.1882L277.66 23.4824ZM297.72 23.4824L299.191 23.7766L299.55 21.9824H297.72V23.4824ZM285.82 82.9824V84.4824H287.05L287.291 83.2766L285.82 82.9824ZM265.76 82.9824L264.289 82.6882L263.93 84.4824H265.76V82.9824ZM247.23 82.9824V84.4824H248.46L248.701 83.2766L247.23 82.9824ZM227.17 82.9824L225.699 82.6882L225.34 84.4824H227.17V82.9824ZM239.07 23.4824V21.9824H237.84L237.599 23.1882L239.07 23.4824ZM259.13 23.4824L260.601 23.7766L260.96 21.9824H259.13V23.4824ZM271.455 61.0524V62.5524H272.683L272.926 61.3481L271.455 61.0524ZM250.29 61.0524L248.819 60.7568L248.458 62.5524H250.29V61.0524ZM253.605 44.5624V43.0624H252.377L252.134 44.2668L253.605 44.5624ZM274.77 44.5624L276.241 44.8581L276.602 43.0624H274.77V44.5624ZM277.66 24.9824H297.72V21.9824H277.66V24.9824ZM296.249 23.1882L284.349 82.6882L287.291 83.2766L299.191 23.7766L296.249 23.1882ZM285.82 81.4824H265.76V84.4824H285.82V81.4824ZM267.231 83.2766L279.131 23.7766L276.189 23.1882L264.289 82.6882L267.231 83.2766ZM247.23 81.4824H227.17V84.4824H247.23V81.4824ZM228.641 83.2766L240.541 23.7766L237.599 23.1882L225.699 82.6882L228.641 83.2766ZM239.07 24.9824H259.13V21.9824H239.07V24.9824ZM257.659 23.1882L245.759 82.6882L248.701 83.2766L260.601 23.7766L257.659 23.1882ZM271.455 59.5524H250.29V62.5524H271.455V59.5524ZM251.761 61.3481L255.076 44.8581L252.134 44.2668L248.819 60.7568L251.761 61.3481ZM253.605 46.0624H274.77V43.0624H253.605V46.0624ZM273.299 44.2668L269.984 60.7568L272.926 61.3481L276.241 44.8581L273.299 44.2668ZM289.025 82.9824L287.76 82.1764L286.291 84.4824H289.025V82.9824ZM326.935 23.4824V21.9824H326.113L325.67 22.6764L326.935 23.4824ZM346.655 23.4824L348.115 23.1363L347.841 21.9824H346.655V23.4824ZM360.765 82.9824V84.4824H362.663L362.225 82.6363L360.765 82.9824ZM340.79 82.9824L339.317 83.2641L339.55 84.4824H340.79V82.9824ZM331.185 32.7474V31.2474H329.371L329.712 33.0291L331.185 32.7474ZM339.005 32.7474L340.307 33.4938L341.595 31.2474H339.005V32.7474ZM310.19 82.9824V84.4824H311.059L311.492 83.7288L310.19 82.9824ZM306.535 72.6124L305.223 71.8866L303.992 74.1124H306.535V72.6124ZM314.525 58.1624V56.6624H313.641L313.213 57.4366L314.525 58.1624ZM341.895 58.1624L343.378 57.9356L343.183 56.6624H341.895V58.1624ZM344.105 72.6124V74.1124H345.852L345.588 72.3856L344.105 72.6124ZM290.29 83.7884L328.2 24.2884L325.67 22.6764L287.76 82.1764L290.29 83.7884ZM326.935 24.9824H346.655V21.9824H326.935V24.9824ZM345.196 23.8285L359.306 83.3285L362.225 82.6363L348.115 23.1363L345.196 23.8285ZM360.765 81.4824H340.79V84.4824H360.765V81.4824ZM342.264 82.7007L332.659 32.4657L329.712 33.0291L339.317 83.2641L342.264 82.7007ZM331.185 34.2474H339.005V31.2474H331.185V34.2474ZM337.704 32.0011L308.889 82.2361L311.492 83.7288L340.307 33.4938L337.704 32.0011ZM310.19 81.4824H289.025V84.4824H310.19V81.4824ZM307.848 73.3383L315.838 58.8883L313.213 57.4366L305.223 71.8866L307.848 73.3383ZM314.525 59.6624H341.895V56.6624H314.525V59.6624ZM340.413 58.3892L342.623 72.8392L345.588 72.3856L343.378 57.9356L340.413 58.3892ZM344.105 71.1124H306.535V74.1124H344.105V71.1124ZM363.967 82.9824L362.496 82.6882L362.137 84.4824H363.967V82.9824ZM375.867 23.4824V21.9824H374.637L374.396 23.1882L375.867 23.4824ZM392.357 23.4824L393.633 22.6944L393.194 21.9824H392.357V23.4824ZM414.712 59.6924V61.1924H417.401L415.988 58.9044L414.712 59.6924ZM407.742 59.6924L406.271 59.3989L405.913 61.1924H407.742V59.6924ZM414.967 23.4824V21.9824H413.737L413.496 23.1889L414.967 23.4824ZM434.517 23.4824L435.988 23.7766L436.347 21.9824H434.517V23.4824ZM422.617 82.9824V84.4824H423.847L424.088 83.2766L422.617 82.9824ZM406.127 82.9824L404.851 83.7704L405.29 84.4824H406.127V82.9824ZM383.772 46.7724V45.2724H381.083L382.496 47.5604L383.772 46.7724ZM390.742 46.7724L392.213 47.0659L392.571 45.2724H390.742V46.7724ZM383.517 82.9824V84.4824H384.747L384.988 83.2759L383.517 82.9824ZM365.438 83.2766L377.338 23.7766L374.396 23.1882L362.496 82.6882L365.438 83.2766ZM375.867 24.9824H392.357V21.9824H375.867V24.9824ZM391.081 24.2704L413.436 60.4804L415.988 58.9044L393.633 22.6944L391.081 24.2704ZM414.712 58.1924H407.742V61.1924H414.712V58.1924ZM409.213 59.9859L416.438 23.7759L413.496 23.1889L406.271 59.3989L409.213 59.9859ZM414.967 24.9824H434.517V21.9824H414.967V24.9824ZM433.046 23.1882L421.146 82.6882L424.088 83.2766L435.988 23.7766L433.046 23.1882ZM422.617 81.4824H406.127V84.4824H422.617V81.4824ZM407.403 82.1944L385.048 45.9844L382.496 47.5604L404.851 83.7704L407.403 82.1944ZM383.772 48.2724H390.742V45.2724H383.772V48.2724ZM389.271 46.4789L382.046 82.6889L384.988 83.2759L392.213 47.0659L389.271 46.4789ZM383.517 81.4824H363.967V84.4824H383.517V81.4824ZM432.282 82.9824L430.811 82.6882L430.453 84.4824H432.282V82.9824ZM444.182 23.4824V21.9824H442.953L442.711 23.1882L444.182 23.4824ZM464.242 23.4824L465.713 23.7766L466.072 21.9824H464.242V23.4824ZM452.342 82.9824V84.4824H453.572L453.813 83.2766L452.342 82.9824ZM433.753 83.2766L445.653 23.7766L442.711 23.1882L430.811 82.6882L433.753 83.2766ZM444.182 24.9824H464.242V21.9824H444.182V24.9824ZM462.771 23.1882L450.871 82.6882L453.813 83.2766L465.713 23.7766L462.771 23.1882ZM452.342 81.4824H432.282V84.4824H452.342V81.4824Z" fill="#EF790C"/>
</svg>
